<svg xmlns="http://www.w3.org/2000/svg" viewBox="0 0 100 100" width="256" height="256" role="img" aria-label="Baldr">
  <g fill="none" stroke="#FFFFFF" stroke-width="3.4" stroke-linecap="round"><line x1="50" y1="30" x2="50" y2="9"/><line x1="50" y1="30" x2="50" y2="9" transform="rotate(30 50 50)"/><line x1="50" y1="30" x2="50" y2="9" transform="rotate(60 50 50)"/><line x1="50" y1="30" x2="50" y2="9" transform="rotate(90 50 50)"/><line x1="50" y1="30" x2="50" y2="9" transform="rotate(120 50 50)"/><line x1="50" y1="30" x2="50" y2="9" transform="rotate(150 50 50)"/><line x1="50" y1="30" x2="50" y2="9" transform="rotate(180 50 50)"/><line x1="50" y1="30" x2="50" y2="9" transform="rotate(210 50 50)"/><line x1="50" y1="30" x2="50" y2="9" transform="rotate(240 50 50)"/><line x1="50" y1="30" x2="50" y2="9" transform="rotate(270 50 50)"/><line x1="50" y1="30" x2="50" y2="9" transform="rotate(300 50 50)"/><line x1="50" y1="30" x2="50" y2="9" transform="rotate(330 50 50)"/></g>
  <circle cx="50" cy="50" r="13" fill="none" stroke="#FFFFFF" stroke-width="3.4"/>
  <circle cx="50" cy="50" r="5" fill="#FFFFFF"/>
</svg>
